<svg xmlns="http://www.w3.org/2000/svg" width="16.868" height="16.866" viewBox="0 0 16.868 16.866">
  <path id="Icon_ionic-ios-call" data-name="Icon ionic-ios-call" d="M20.871,17.71a14.168,14.168,0,0,0-2.96-1.98c-.887-.426-1.212-.417-1.84.035-.523.378-.861.729-1.462.6a8.723,8.723,0,0,1-2.938-2.174A8.66,8.66,0,0,1,9.5,11.25c-.127-.606.224-.94.6-1.462.452-.628.465-.953.035-1.84a13.888,13.888,0,0,0-1.98-2.96c-.646-.646-.79-.5-1.146-.378a6.522,6.522,0,0,0-1.049.558A3.166,3.166,0,0,0,4.694,6.5c-.25.54-.54,1.546.935,4.172a23.277,23.277,0,0,0,4.093,5.458h0l0,0,0,0h0a23.368,23.368,0,0,0,5.458,4.093c2.626,1.475,3.631,1.186,4.172.935a3.112,3.112,0,0,0,1.331-1.26,6.522,6.522,0,0,0,.558-1.049C21.376,18.5,21.521,18.355,20.871,17.71Z" transform="translate(-4.49 -4.503)" fill="#fff"/>
</svg>
