<svg id="Group_50836" data-name="Group 50836" xmlns="http://www.w3.org/2000/svg" width="48" height="48" viewBox="0 0 48 48">
  <circle id="XMLID_11062_" cx="24" cy="24" r="24" transform="translate(0 0)" fill="#ee4b68"/>
  <path id="XMLID_2717_" d="M48,24A24.025,24.025,0,0,1,35.85,44.888a22.561,22.561,0,0,1-3.187,1.5c-.262.113-.525.188-.787.3A23.768,23.768,0,0,1,24,48c-.45,0-.9,0-1.35-.037-.15,0-.3-.037-.45-.037a5.617,5.617,0,0,1-.825-.075h-.037c-.413-.037-.825-.112-1.2-.15a24.927,24.927,0,0,1-3.75-.937c-.338-.112-.675-.225-1.013-.375-.037,0-.075-.037-.112-.037-.263-.112-.488-.187-.75-.3-.525-.225-1.05-.488-1.575-.75A24.068,24.068,0,0,1,2.175,33.975,23.376,23.376,0,0,1,0,24a24,24,0,0,1,48,0Z" transform="translate(0 0)" fill="#95b83e"/>
  <g id="XMLID_58_" transform="translate(7.312 4.2)">
    <path id="XMLID_159_" d="M54.55,41.225c-10.088,8.063-18.3,8.063-28.35,0,3.713-6.562,4.013-13.8,4.875-21.638.413-5.1,4.088-8.288,9.188-8.288h.188c5.138.038,8.775,3.188,9.188,8.288C50.538,27.425,50.838,34.662,54.55,41.225Z" transform="translate(-23.688 -11.262)" fill="#343843"/>
    <ellipse id="XMLID_158_" cx="1.575" cy="2.963" rx="1.575" ry="2.963" transform="translate(6.657 11.004) rotate(-12.827)" fill="#f8cfa3"/>
    <path id="XMLID_157_" d="M41.9,45.737c-.375,0-1.088-.75-1.388-2.062-.3-1.35.037-2.4.412-2.475h.038c.375,0,1.087.75,1.387,2.063a4.376,4.376,0,0,1,.037,1.837c-.112.338-.262.6-.412.638H41.9Z" transform="translate(-32.558 -29.95)" fill="#f1b97c"/>
    <ellipse id="XMLID_156_" cx="2.963" cy="1.575" rx="2.963" ry="1.575" transform="translate(22.333 16.05) rotate(-77.173)" fill="#f8cfa3"/>
    <path id="XMLID_155_" d="M82.691,45.729h-.037c-.15-.037-.338-.3-.412-.637a3.833,3.833,0,0,1,.037-1.838c.3-1.35,1.088-2.138,1.463-2.062s.713,1.125.412,2.475C83.778,45.017,83.066,45.729,82.691,45.729Z" transform="translate(-58.653 -29.942)" fill="#f1b97c"/>
    <path id="XMLID_153_" d="M50.4,73.088l.525-2.363.862-.45L59.25,70.2l1.65,2.213-.412.675Z" transform="translate(-38.813 -48.075)" fill="#e7e7e8"/>
    <path id="XMLID_105_" d="M52.875,76.525v3.563a23.955,23.955,0,0,1-33.375.037V76.563c.45-4.95,3.487-5.625,4.875-5.662a11.579,11.579,0,0,0,2.287-.3c5.888-1.463,5.925-5.025,5.925-5.025V62.2h7.2v3.375s.037,3.563,5.925,5.025A11.579,11.579,0,0,0,48,70.9C49.387,70.938,52.425,71.613,52.875,76.525Z" transform="translate(-19.5 -43.075)" fill="#f1b97c"/>
    <path id="XMLID_81_" d="M52.875,86.213v3.563a23.955,23.955,0,0,1-33.375.037V86.25c.45-4.95,3.487-5.625,4.875-5.662a11.579,11.579,0,0,0,2.287-.3,9.2,9.2,0,0,0,4.8-2.588l1.5,3.15,3.225,7.838,3.75-8.588L41.213,78a9.564,9.564,0,0,0,4.537,2.287,11.579,11.579,0,0,0,2.287.3C49.387,80.625,52.425,81.3,52.875,86.213Z" transform="translate(-19.5 -52.763)" fill="#e9bb06"/>
    <path id="XMLID_150_" d="M58.7,30.263c0,4.8-3.562,10.575-7.95,10.575S42.8,35.063,42.8,30.263,46.362,21.6,50.75,21.6,58.7,25.463,58.7,30.263Z" transform="translate(-34.062 -17.7)" fill="#f8cfa3"/>
    <path id="XMLID_130_" d="M61,80.05c-.863,5.363-4.088,10.837-4.463,11.475,0,.037-.037.037-.075,0-.375-.638-3.6-6.112-4.463-11.475l.487-.15.713.563.638.938s1.387,4.088,2.625,7.088c1.275-3,2.625-7.088,2.625-7.088l.637-.937.713-.562Z" transform="translate(-39.813 -54.138)" fill="#e7e7e8"/>
    <path id="XMLID_125_" d="M76.262,75.137l.375,2.887a25.2,25.2,0,0,0-2.625-3.262,2.011,2.011,0,0,0-3.075.188.037.037,0,0,1-.037.038,6.2,6.2,0,0,1,1.2-1.913,1.785,1.785,0,0,0,.45-.975,1.971,1.971,0,0,0-.713-1.912V69.7a5.148,5.148,0,0,1,2.025,1.088A6.874,6.874,0,0,1,76.262,75.137Z" transform="translate(-51.625 -47.763)" fill="#fcfcfc"/>
    <path id="XMLID_117_" d="M47.438,74.988a.037.037,0,0,0-.037-.037,2.011,2.011,0,0,0-3.075-.187A33.84,33.84,0,0,0,41.7,78.025l.375-2.888a7.031,7.031,0,0,1,2.325-4.35A4.912,4.912,0,0,1,46.425,69.7v.488a2.053,2.053,0,0,0-.713,1.912,2.558,2.558,0,0,0,.45.975A5.847,5.847,0,0,1,47.438,74.988Z" transform="translate(-33.375 -47.763)" fill="#fcfcfc"/>
    <path id="XMLID_114_" d="M57.388,25.263l.225-.225c-.15-1.312-.263-2.625-.413-3.937-.375-.487-.75-.937-1.012-1.35l-1.2-2.1L51.35,13.188,48.088,11.2h-.45c-5.1.038-8.775,3.188-9.187,8.287-.15,1.463-.3,2.925-.45,4.35a13.4,13.4,0,0,0,6.788-8.1,13.361,13.361,0,0,0,12.6,9.525Z" transform="translate(-31.063 -11.2)" fill="#343843"/>
    <g id="Group_50835" data-name="Group 50835" transform="translate(7.8 3.037)">
      <path id="XMLID_112_" d="M66.825,27.588a11.5,11.5,0,0,0,3.225,1.05,20.672,20.672,0,0,1-3.263-1.388,12.248,12.248,0,0,0,3,.975,16.063,16.063,0,0,1-3.037-1.312,9.014,9.014,0,0,0,2.775.863,16.382,16.382,0,0,1-2.812-1.2,8.021,8.021,0,0,0,2.55.788,14.284,14.284,0,0,1-3-1.388,9.11,9.11,0,0,0,3.038,1.05,13.768,13.768,0,0,1-2.887-1.35A9.645,9.645,0,0,0,69.3,26.687a12.96,12.96,0,0,1-2.738-1.275,9.292,9.292,0,0,0,2.738.938,12.975,12.975,0,0,1-2.625-1.237,8,8,0,0,0,2.625.9,10.838,10.838,0,0,1-6.338-5.587c-.037-.112-.113-.187-.113-.263a.29.29,0,0,1-.037-.112.29.29,0,0,0,.037.112,7.507,7.507,0,0,0,1.162,2.513,10.381,10.381,0,0,1-1.5-2.588,7.327,7.327,0,0,0,1.238,2.775,11.927,11.927,0,0,1-1.613-2.775,8.986,8.986,0,0,0,1.313,2.925,13.4,13.4,0,0,1-1.687-2.888A8.462,8.462,0,0,0,63.15,23.2a13.127,13.127,0,0,1-1.763-3.038,7.82,7.82,0,0,0,.938,2.363,11.537,11.537,0,0,1-1.35-2.587,9.587,9.587,0,0,0,1.013,2.55,14.522,14.522,0,0,1-1.463-2.775,10.7,10.7,0,0,0,1.125,2.775,15.15,15.15,0,0,1-1.537-3,10.325,10.325,0,0,0,1.237,3A16.1,16.1,0,0,1,59.7,19.3a13.483,13.483,0,0,0,10.613,9.75,15.834,15.834,0,0,1-3.488-1.462Z" transform="translate(-52.425 -19.3)" fill="#454652"/>
      <path id="XMLID_106_" d="M44.425,24.362a7.275,7.275,0,0,0,.563-2.325,10.628,10.628,0,0,1-.787,2.25,6.576,6.576,0,0,0,.525-2.213,9.6,9.6,0,0,1-.75,2.138,6.6,6.6,0,0,0,.487-2.138c-.675,2.325-1.687,4.388-4.162,5.55A5.3,5.3,0,0,0,42.25,26.5a9.145,9.145,0,0,1-1.913,1.388,5.865,5.865,0,0,0,2.063-1.2,8.143,8.143,0,0,1-2.025,1.463,5.736,5.736,0,0,0,2.175-1.275,8.638,8.638,0,0,1-2.138,1.538,6.414,6.414,0,0,0,2.288-1.35A7.157,7.157,0,0,0,45.213,22a7.6,7.6,0,0,1-.787,2.362Z" transform="translate(-40.3 -20.987)" fill="#454652"/>
    </g>
  </g>
</svg>
