<svg id="Icon_ionic-ios-mail" data-name="Icon ionic-ios-mail" xmlns="http://www.w3.org/2000/svg" width="16.867" height="11.678" viewBox="0 0 16.867 11.678">
  <path id="Path_200" data-name="Path 200" d="M20.1,10.339l-4.363,4.454a.079.079,0,0,0,0,.114l3.053,3.259a.528.528,0,1,1-.746.748l-3.041-3.247a.083.083,0,0,0-.118,0l-.742.756a3.261,3.261,0,0,1-2.327.983,3.326,3.326,0,0,1-2.376-1.012l-.714-.727a.083.083,0,0,0-.118,0L5.573,18.913a.528.528,0,1,1-.746-.748L7.88,14.907a.087.087,0,0,0,0-.114L3.513,10.339a.08.08,0,0,0-.138.057v8.912a1.3,1.3,0,0,0,1.3,1.3H18.944a1.3,1.3,0,0,0,1.3-1.3V10.4A.081.081,0,0,0,20.1,10.339Z" transform="translate(-3.375 -8.931)" fill="#fff"/>
  <path id="Path_201" data-name="Path 201" d="M12.177,15.174a2.227,2.227,0,0,0,1.587-.654l6.368-6.366a1.29,1.29,0,0,0-.8-.279H5.029a1.281,1.281,0,0,0-.8.279l6.368,6.366A2.227,2.227,0,0,0,12.177,15.174Z" transform="translate(-3.743 -7.875)" fill="#fff"/>
</svg>
