<svg id="Group_50842" data-name="Group 50842" xmlns="http://www.w3.org/2000/svg" width="48" height="48" viewBox="0 0 48 48">
  <circle id="Ellipse_956" data-name="Ellipse 956" cx="24" cy="24" r="24" fill="#95b83e"/>
  <g id="Group_50837" data-name="Group 50837" transform="translate(5.367 31.824)">
    <path id="Path_82673" data-name="Path 82673" d="M253.027,362.8c-.038,0-.076.038-.113.038s-.076-.038-.113-.038Z" transform="translate(-234.28 -360.343)" fill="#203864"/>
    <path id="Path_82674" data-name="Path 82674" d="M94.066,344.094a23.986,23.986,0,0,1-37.266,0c3.137-4.2,7.937-6.274,11.868-7.294a13.188,13.188,0,0,0,1.02,5.745c1.323-3.024,5.745-3.288,5.745-3.288s4.422.265,5.707,3.288a12.614,12.614,0,0,0,1.02-5.745C86.129,337.82,90.967,339.9,94.066,344.094Z" transform="translate(-56.8 -336.8)" fill="#203864"/>
  </g>
  <path id="Path_82675" data-name="Path 82675" d="M207.609,297.874v.038c0,.378-.189,2.8-5.291,4.724h-.227c-5.1-1.928-5.291-4.346-5.291-4.724v-.038a6.636,6.636,0,0,1,.227-1.474c1.474,1.852,3.25,3.1,5.178,3.1s3.7-1.247,5.178-3.1A6.637,6.637,0,0,1,207.609,297.874Z" transform="translate(-178.205 -268.394)" fill="#fff"/>
  <g id="Group_50838" data-name="Group 50838" transform="translate(17.2 29.48)">
    <path id="Path_82676" data-name="Path 82676" d="M259.4,312s.265,2.721-5.4,4.838c0,0,4.422.265,5.707,3.288C259.783,320.2,262.315,313.625,259.4,312Z" transform="translate(-247.2 -312)" fill="#125488"/>
    <path id="Path_82677" data-name="Path 82677" d="M183.425,312c-2.91,1.625-.378,8.2-.3,8.088,1.323-3.024,5.707-3.288,5.707-3.288C183.161,314.721,183.425,312,183.425,312Z" transform="translate(-182.03 -312)" fill="#125488"/>
  </g>
  <g id="Group_50839" data-name="Group 50839" transform="translate(14.008 10.215)">
    <path id="Path_82678" data-name="Path 82678" d="M188.047,117.813a10.758,10.758,0,0,1-3.061,6.2,7.316,7.316,0,0,1-1.02.869l-.6-1.928h-6.5l-.6,1.928c-1.209-.907-3.742-3.439-3.78-5.82-1.058-13.569,9.335-10.7,9.335-10.7C188.8,107.873,188.576,114.034,188.047,117.813Z" transform="translate(-170.117 -108.11)" fill="#fff"/>
    <path id="Path_82679" data-name="Path 82679" d="M334.328,202.028a3.866,3.866,0,0,1-1.928,1.7,16.037,16.037,0,0,0,.68-1.89V201.8l.454-1.7H333.5c.151-.567.3-1.134.416-1.7a1.074,1.074,0,0,1,.454.151C335.2,199.08,335.159,200.63,334.328,202.028Z" transform="translate(-315 -189.869)" fill="#fff"/>
    <path id="Path_82680" data-name="Path 82680" d="M150.833,204.816a3.866,3.866,0,0,1-1.928-1.7c-.869-1.4-.869-2.948-.038-3.439.076-.038.113-.076.189-.076a25.737,25.737,0,0,0,1.1,3.364A18.293,18.293,0,0,0,150.833,204.816Z" transform="translate(-148.249 -190.955)" fill="#fff"/>
  </g>
  <path id="SVGCleanerId_0" d="M158.876,39.621c.3-3.477-5.216-3.25-5.216-3.25a10.689,10.689,0,0,0-9.26,9l1.134-1.361c-1.776,3.893.907,10.583,1.134,11.112,1.4,4.649,4.5,8.92,8.088,8.92s6.69-4.271,8.088-8.92h0V55.08c.151-.567.3-1.134.416-1.7h-.038c.756-3.024,1.587-6.085,1.587-6.085C166.964,36.447,158.876,39.621,158.876,39.621Zm3.817,13.228a10.758,10.758,0,0,1-3.061,6.2,10.413,10.413,0,0,1-1.02.869l-.6-1.89h-6.5l-.6,1.928a11.874,11.874,0,0,1-3.061-3.591,8.025,8.025,0,0,1-.718-2.23c-1.058-13.568,9.335-10.7,9.335-10.7C163.449,42.91,163.222,49.07,162.693,52.85Z" transform="translate(-130.756 -32.932)" fill="#324a5e"/>
  <g id="Group_50840" data-name="Group 50840" transform="translate(13.644 3.436)">
    <path id="SVGCleanerId_0_1_" d="M158.876,39.621c.3-3.477-5.216-3.25-5.216-3.25a10.689,10.689,0,0,0-9.26,9l1.134-1.361c-1.776,3.893.907,10.583,1.134,11.112,1.4,4.649,4.5,8.92,8.088,8.92s6.69-4.271,8.088-8.92h0V55.08c.151-.567.3-1.134.416-1.7h-.038c.756-3.024,1.587-6.085,1.587-6.085C166.964,36.447,158.876,39.621,158.876,39.621Zm3.817,13.228a10.758,10.758,0,0,1-3.061,6.2,10.413,10.413,0,0,1-1.02.869l-.6-1.89h-6.5l-.6,1.928a11.874,11.874,0,0,1-3.061-3.591,8.025,8.025,0,0,1-.718-2.23c-1.058-13.568,9.335-10.7,9.335-10.7C163.449,42.91,163.222,49.07,162.693,52.85Z" transform="translate(-144.4 -36.368)" fill="#324a5e"/>
  </g>
  <path id="Path_82681" data-name="Path 82681" d="M158.876,39.621c.3-3.477-5.216-3.25-5.216-3.25a10.689,10.689,0,0,0-9.26,9l1.134-1.361c-1.776,3.893.907,10.583,1.134,11.112,1.4,4.649,4.5,8.92,8.088,8.92s6.69-4.271,8.088-8.92h0V55.08c.151-.567.3-1.134.416-1.7h-.038c.756-3.024,1.587-6.085,1.587-6.085C166.964,36.447,158.876,39.621,158.876,39.621Zm3.817,13.228a10.758,10.758,0,0,1-3.061,6.2,10.413,10.413,0,0,1-1.02.869l-.6-1.89h-6.5l-.6,1.928c-1.209-.907-3.742-3.439-3.78-5.82-1.058-13.568,9.335-10.7,9.335-10.7C163.449,42.91,163.222,49.07,162.693,52.85Z" transform="translate(-130.756 -32.932)" fill="#324a5e"/>
  <path id="Path_82682" data-name="Path 82682" d="M226,279.2a3.569,3.569,0,0,0,2.646,1.209,3.439,3.439,0,0,0,2.646-1.209Z" transform="translate(-204.646 -252.819)" fill="#fff"/>
</svg>
