<svg xmlns="http://www.w3.org/2000/svg" width="21.083" height="21.083" viewBox="0 0 21.083 21.083">
  <path id="Icon_awesome-copyright" data-name="Icon awesome-copyright" d="M11.1.563A10.542,10.542,0,1,0,21.646,11.1,10.542,10.542,0,0,0,11.1.563ZM16.083,15.3a6.345,6.345,0,0,1-4.669,1.944,5.988,5.988,0,0,1-6.142-6.188,5.986,5.986,0,0,1,6.111-6.1,6.122,6.122,0,0,1,4.4,1.654.51.51,0,0,1,.053.622l-.951,1.473a.51.51,0,0,1-.775.1,4.324,4.324,0,0,0-2.63-1.015,3.042,3.042,0,0,0-3.142,3.234,3.181,3.181,0,0,0,3.157,3.387A4.167,4.167,0,0,0,14.277,13.2a.51.51,0,0,1,.787.045l1.043,1.427a.51.51,0,0,1-.024.632Z" transform="translate(-0.563 -0.563)" fill="#fff"/>
</svg>
