<svg xmlns="http://www.w3.org/2000/svg" width="28.068" height="26.749" viewBox="0 0 28.068 26.749">
  <g id="Group_50778" data-name="Group 50778" transform="translate(0.001 -12.023)">
    <g id="Group_50545" data-name="Group 50545" transform="translate(3.476 13.471)">
      <g id="Group_50544" data-name="Group 50544">
        <path id="Path_70667" data-name="Path 70667" d="M83.071,44.653l-4.644-.669-2.077-4.172a2.2,2.2,0,0,0-3.924,0L70.35,43.984l-4.644.669a2.164,2.164,0,0,0-1.212,3.7l3.36,3.247-.793,4.585a2.184,2.184,0,0,0,3.174,2.286l4.154-2.165,4.154,2.165a2.185,2.185,0,0,0,3.174-2.286L80.924,51.6l3.36-3.247A2.164,2.164,0,0,0,83.071,44.653Zm-.1,2.368-3.713,3.588a.925.925,0,0,0-.27.823l.877,5.067a.311.311,0,0,1-.453.327l-4.59-2.392a.945.945,0,0,0-.873,0l-4.59,2.392a.311.311,0,0,1-.453-.327l.877-5.067a.925.925,0,0,0-.27-.823L65.8,47.021a.308.308,0,0,1,.173-.529l5.132-.739a.937.937,0,0,0,.706-.508l2.295-4.61a.313.313,0,0,1,.56,0l2.295,4.61a.937.937,0,0,0,.706.508l5.132.739A.308.308,0,0,1,82.975,47.021Z" transform="translate(-63.831 -38.604)" fill="#fff"/>
      </g>
    </g>
    <g id="Group_50547" data-name="Group 50547" transform="translate(4.577 12.023)">
      <g id="Group_50546" data-name="Group 50546" transform="translate(0 0)">
        <path id="Path_70668" data-name="Path 70668" d="M86.239,13.937l-1.112-1.53a.929.929,0,0,0-1.5,1.093l1.112,1.53a.929.929,0,0,0,1.5-1.093Z" transform="translate(-83.446 -12.023)" fill="#fff"/>
      </g>
    </g>
    <g id="Group_50549" data-name="Group 50549" transform="translate(-0.001 27.114)">
      <g id="Group_50548" data-name="Group 50548" transform="translate(0)">
        <path id="Path_70669" data-name="Path 70669" d="M3.648,287.751a.929.929,0,0,0-1.171-.6l-1.835.6a.929.929,0,1,0,.574,1.768l1.835-.6A.929.929,0,0,0,3.648,287.751Z" transform="translate(0.001 -287.109)" fill="#fff"/>
      </g>
    </g>
    <g id="Group_50551" data-name="Group 50551" transform="translate(20.518 12.024)">
      <g id="Group_50550" data-name="Group 50550" transform="translate(0 0)">
        <path id="Path_70670" data-name="Path 70670" d="M376.6,12.2a.929.929,0,0,0-1.3.206l-1.112,1.53a.93.93,0,0,0,1.5,1.093L376.8,13.5A.929.929,0,0,0,376.6,12.2Z" transform="translate(-374.009 -12.025)" fill="#fff"/>
      </g>
    </g>
    <g id="Group_50553" data-name="Group 50553" transform="translate(24.372 27.113)">
      <g id="Group_50552" data-name="Group 50552">
        <path id="Path_70671" data-name="Path 70671" d="M447.214,287.75l-1.835-.6a.929.929,0,0,0-.575,1.768l1.835.6a.929.929,0,1,0,.574-1.768Z" transform="translate(-444.162 -287.108)" fill="#fff"/>
      </g>
    </g>
    <g id="Group_50555" data-name="Group 50555" transform="translate(13.104 35.027)">
      <g id="Group_50554" data-name="Group 50554" transform="translate(0 0)">
        <path id="Path_70672" data-name="Path 70672" d="M239.863,431.2a.93.93,0,0,0-.93.93v1.886a.929.929,0,1,0,1.859,0v-1.886A.929.929,0,0,0,239.863,431.2Z" transform="translate(-238.934 -431.205)" fill="#fff"/>
      </g>
    </g>
  </g>
</svg>
